<svg xmlns="http://www.w3.org/2000/svg" width="240" height="240" viewBox="0 0 240 240"><title>bag</title><circle cx="140.25" cy="65.36" r="22.86" transform="translate(-9.75 103.31) rotate(-39.19)" fill="#ffbf67"/><circle cx="182.18" cy="94.22" r="19.07" transform="translate(-13.27 156.41) rotate(-45)" fill="#a6bf48"/><circle cx="64.25" cy="109.77" r="29.56" transform="translate(-58.8 77.58) rotate(-45)" fill="#ff9168"/><circle cx="114.63" cy="100.62" r="14.2" transform="translate(-9.76 188.9) rotate(-76.64)" fill="#2fd3ea"/><circle cx="95.69" cy="68.95" r="15.84" fill="#51d388"/><circle cx="54.92" cy="59.89" r="15.26" fill="#2fd3ea"/><circle cx="109.51" cy="30.06" r="13.82" transform="translate(53.99 129.13) rotate(-76.08)" fill="#ff7891"/><circle cx="79.85" cy="36.29" r="9.8" fill="#ffbf67"/><circle cx="30.76" cy="80.3" r="11.35" transform="translate(-47.77 45.27) rotate(-45)" fill="#ff7891"/><path d="M30.72,106.53a9.25,9.25,0,1,1-9.25-9.25A9.25,9.25,0,0,1,30.72,106.53Z" fill="#51d388"/><circle cx="182.18" cy="52.38" r="17.56" transform="translate(62.86 199.68) rotate(-67.03)" fill="#2fd3ea"/><path d="M218.2,72.61a10.69,10.69,0,1,1-10.69-10.68A10.69,10.69,0,0,1,218.2,72.61Z" fill="#51d388"/><circle cx="216.76" cy="101.26" r="9.25" transform="matrix(0.16, -0.99, 0.99, 0.16, 82, 298.94)" fill="#ff7891"/><circle cx="157.7" cy="30.97" r="10.71" fill="#a6bf48"/><path d="M141.32,27.74A5.36,5.36,0,1,1,136,22.38,5.35,5.35,0,0,1,141.32,27.74Z" fill="#ff9168"/><rect x="1.12" y="104.71" width="237.76" height="24.17" rx="6.86" fill="#5c418e"/><path d="M60.75,237.5h118.5a33.32,33.32,0,0,0,32.71-27H28A33.32,33.32,0,0,0,60.75,237.5Z" fill="#5c418e"/><path d="M12.22,128.88,28,210.52H212l15.82-81.64Zm19.35,30.76L28.83,142.3H54.58A10.78,10.78,0,0,1,65.31,152l1.6,16.71H42.21A10.78,10.78,0,0,1,31.57,159.64Zm16,43.08a10.78,10.78,0,0,1-10.64-9.11l-2.23-14.12H58.15a10.77,10.77,0,0,1,10.73,9.75l1.3,13.48ZM77.77,142.3h24.88A10.78,10.78,0,0,1,113.43,153l.18,15.8H89.72a10.78,10.78,0,0,1-10.75-10Zm14.42,60.42a10.78,10.78,0,0,1-10.74-10l-1-13.23h22.6a10.78,10.78,0,0,1,10.78,10.65l.14,12.58Zm66.36-10a10.78,10.78,0,0,1-10.74,10H126l.14-12.58a10.78,10.78,0,0,1,10.78-10.65h22.6Zm2.48-34a10.78,10.78,0,0,1-10.75,10H126.39l.18-15.8a10.78,10.78,0,0,1,10.78-10.65h24.88Zm42.05,34.86a10.78,10.78,0,0,1-10.64,9.11H169.82l1.3-13.48a10.77,10.77,0,0,1,10.73-9.75h23.46Zm5.35-34a10.78,10.78,0,0,1-10.64,9.11h-24.7l1.6-16.71a10.78,10.78,0,0,1,10.73-9.74h25.75Z" fill="#6b70c6"/><path d="M99.73,132.83l8,6.72a11.77,11.77,0,0,0,16.57-1.45l7.73-9.22H96.68A11.67,11.67,0,0,0,99.73,132.83Z" fill="#5c418e"/><path d="M102,119.41,198.07,5a6.87,6.87,0,0,1,9.67-.85l8,6.72a6.86,6.86,0,0,1,.84,9.67L120.55,135a6.86,6.86,0,0,1-9.67.84l-8-6.72A6.85,6.85,0,0,1,102,119.41Z" fill="#6b70c6"/><path d="M124.69,120.73a6.12,6.12,0,1,1-.75-8.62A6.13,6.13,0,0,1,124.69,120.73Z" fill="#5c418e"/></svg>